<svg version="1.1" xmlns="http://www.w3.org/2000/svg" style="display: block;" viewBox="0 0 1200 1200" width="300" height="300" preserveAspectRatio="none">
<defs>
	<linearGradient id="Gradient1" gradientUnits="userSpaceOnUse" x1="701.419" y1="224.83" x2="702.5" y2="239.101">
		<stop class="stop0" offset="0" stop-opacity="1" stop-color="rgb(190,196,248)"/>
		<stop class="stop1" offset="1" stop-opacity="1" stop-color="rgb(255,241,255)"/>
	</linearGradient>
	<linearGradient id="Gradient2" gradientUnits="userSpaceOnUse" x1="249.6" y1="960.077" x2="215.165" y2="979.268">
		<stop class="stop0" offset="0" stop-opacity="1" stop-color="rgb(181,179,188)"/>
		<stop class="stop1" offset="1" stop-opacity="1" stop-color="rgb(212,211,213)"/>
	</linearGradient>
	<linearGradient id="Gradient3" gradientUnits="userSpaceOnUse" x1="555.3" y1="367.274" x2="523.646" y2="261.544">
		<stop class="stop0" offset="0" stop-opacity="1" stop-color="rgb(154,145,205)"/>
		<stop class="stop1" offset="1" stop-opacity="1" stop-color="rgb(214,209,248)"/>
	</linearGradient>
	<linearGradient id="Gradient4" gradientUnits="userSpaceOnUse" x1="485.401" y1="385.389" x2="443.048" y2="279.23">
		<stop class="stop0" offset="0" stop-opacity="1" stop-color="rgb(34,33,73)"/>
		<stop class="stop1" offset="1" stop-opacity="1" stop-color="rgb(90,88,127)"/>
	</linearGradient>
	<linearGradient id="Gradient5" gradientUnits="userSpaceOnUse" x1="580.155" y1="249.841" x2="580.954" y2="260.633">
		<stop class="stop0" offset="0" stop-opacity="1" stop-color="rgb(124,125,170)"/>
		<stop class="stop1" offset="1" stop-opacity="1" stop-color="rgb(150,149,203)"/>
	</linearGradient>
	<linearGradient id="Gradient6" gradientUnits="userSpaceOnUse" x1="739.901" y1="339.18" x2="685.106" y2="227.767">
		<stop class="stop0" offset="0" stop-opacity="1" stop-color="rgb(147,138,200)"/>
		<stop class="stop1" offset="1" stop-opacity="1" stop-color="rgb(208,202,246)"/>
	</linearGradient>
	<linearGradient id="Gradient7" gradientUnits="userSpaceOnUse" x1="634.807" y1="347.411" x2="616.842" y2="250.701">
		<stop class="stop0" offset="0" stop-opacity="1" stop-color="rgb(27,26,63)"/>
		<stop class="stop1" offset="1" stop-opacity="1" stop-color="rgb(83,82,122)"/>
	</linearGradient>
	<linearGradient id="Gradient8" gradientUnits="userSpaceOnUse" x1="852.963" y1="248.281" x2="846.996" y2="198.826">
		<stop class="stop0" offset="0" stop-opacity="1" stop-color="rgb(145,141,195)"/>
		<stop class="stop1" offset="1" stop-opacity="1" stop-color="rgb(187,180,232)"/>
	</linearGradient>
	<linearGradient id="Gradient9" gradientUnits="userSpaceOnUse" x1="943.376" y1="277.355" x2="942.544" y2="189.203">
		<stop class="stop0" offset="0" stop-opacity="1" stop-color="rgb(0,0,21)"/>
		<stop class="stop1" offset="1" stop-opacity="1" stop-color="rgb(43,43,77)"/>
	</linearGradient>
	<linearGradient id="Gradient10" gradientUnits="userSpaceOnUse" x1="835.926" y1="326.144" x2="770.889" y2="211.529">
		<stop class="stop0" offset="0" stop-opacity="1" stop-color="rgb(14,14,46)"/>
		<stop class="stop1" offset="1" stop-opacity="1" stop-color="rgb(71,70,108)"/>
	</linearGradient>
	<linearGradient id="Gradient11" gradientUnits="userSpaceOnUse" x1="955.677" y1="307.739" x2="852.679" y2="214.049">
		<stop class="stop0" offset="0" stop-opacity="1" stop-color="rgb(100,95,156)"/>
		<stop class="stop1" offset="1" stop-opacity="1" stop-color="rgb(155,150,204)"/>
	</linearGradient>
	<linearGradient id="Gradient12" gradientUnits="userSpaceOnUse" x1="601.864" y1="703.374" x2="653.267" y2="811.492">
		<stop class="stop0" offset="0" stop-opacity="1" stop-color="rgb(67,33,154)"/>
		<stop class="stop1" offset="1" stop-opacity="1" stop-color="rgb(113,84,201)"/>
	</linearGradient>
	<linearGradient id="Gradient13" gradientUnits="userSpaceOnUse" x1="317.166" y1="569.914" x2="289.512" y2="532.702">
		<stop class="stop0" offset="0" stop-opacity="1" stop-color="rgb(85,84,132)"/>
		<stop class="stop1" offset="1" stop-opacity="1" stop-color="rgb(113,108,160)"/>
	</linearGradient>
	<linearGradient id="Gradient14" gradientUnits="userSpaceOnUse" x1="518.127" y1="728.084" x2="453.532" y2="512.48">
		<stop class="stop0" offset="0" stop-opacity="1" stop-color="rgb(22,22,67)"/>
		<stop class="stop1" offset="1" stop-opacity="1" stop-color="rgb(77,74,125)"/>
	</linearGradient>
	<linearGradient id="Gradient15" gradientUnits="userSpaceOnUse" x1="636.19" y1="739.296" x2="620.878" y2="577.277">
		<stop class="stop0" offset="0" stop-opacity="1" stop-color="rgb(112,65,207)"/>
		<stop class="stop1" offset="1" stop-opacity="1" stop-color="rgb(223,155,255)"/>
	</linearGradient>
	<linearGradient id="Gradient16" gradientUnits="userSpaceOnUse" x1="467.246" y1="425.701" x2="463.033" y2="403.149">
		<stop class="stop0" offset="0" stop-opacity="1" stop-color="rgb(85,83,127)"/>
		<stop class="stop1" offset="1" stop-opacity="1" stop-color="rgb(123,119,168)"/>
	</linearGradient>
	<linearGradient id="Gradient17" gradientUnits="userSpaceOnUse" x1="461.482" y1="497.16" x2="452.911" y2="420.367">
		<stop class="stop0" offset="0" stop-opacity="1" stop-color="rgb(21,18,55)"/>
		<stop class="stop1" offset="1" stop-opacity="1" stop-color="rgb(81,79,123)"/>
	</linearGradient>
	<linearGradient id="Gradient18" gradientUnits="userSpaceOnUse" x1="520.925" y1="500.88" x2="522.085" y2="407.331">
		<stop class="stop0" offset="0" stop-opacity="1" stop-color="rgb(155,142,215)"/>
		<stop class="stop1" offset="1" stop-opacity="1" stop-color="rgb(226,217,253)"/>
	</linearGradient>
	<linearGradient id="Gradient19" gradientUnits="userSpaceOnUse" x1="929.051" y1="487.139" x2="876.106" y2="424.416">
		<stop class="stop0" offset="0" stop-opacity="1" stop-color="rgb(152,140,214)"/>
		<stop class="stop1" offset="1" stop-opacity="1" stop-color="rgb(198,188,244)"/>
	</linearGradient>
	<linearGradient id="Gradient20" gradientUnits="userSpaceOnUse" x1="721.698" y1="500.044" x2="709.527" y2="416.506">
		<stop class="stop0" offset="0" stop-opacity="1" stop-color="rgb(161,147,220)"/>
		<stop class="stop1" offset="1" stop-opacity="1" stop-color="rgb(215,204,252)"/>
	</linearGradient>
	<linearGradient id="Gradient21" gradientUnits="userSpaceOnUse" x1="844.92" y1="420.876" x2="842.88" y2="402.374">
		<stop class="stop0" offset="0" stop-opacity="1" stop-color="rgb(69,67,107)"/>
		<stop class="stop1" offset="1" stop-opacity="1" stop-color="rgb(94,91,133)"/>
	</linearGradient>
	<linearGradient id="Gradient22" gradientUnits="userSpaceOnUse" x1="813.847" y1="501.062" x2="798.263" y2="410.782">
		<stop class="stop0" offset="0" stop-opacity="1" stop-color="rgb(26,25,63)"/>
		<stop class="stop1" offset="1" stop-opacity="1" stop-color="rgb(59,58,98)"/>
	</linearGradient>
	<linearGradient id="Gradient23" gradientUnits="userSpaceOnUse" x1="625.835" y1="501.859" x2="612.908" y2="410.318">
		<stop class="stop0" offset="0" stop-opacity="1" stop-color="rgb(29,27,68)"/>
		<stop class="stop1" offset="1" stop-opacity="1" stop-color="rgb(78,77,119)"/>
	</linearGradient>
	<linearGradient id="Gradient24" gradientUnits="userSpaceOnUse" x1="274.843" y1="370.127" x2="263.301" y2="328.953">
		<stop class="stop0" offset="0" stop-opacity="1" stop-color="rgb(0,0,1)"/>
		<stop class="stop1" offset="1" stop-opacity="1" stop-color="rgb(16,17,38)"/>
	</linearGradient>
	<linearGradient id="Gradient25" gradientUnits="userSpaceOnUse" x1="297.191" y1="350.053" x2="301.973" y2="311.508">
		<stop class="stop0" offset="0" stop-opacity="1" stop-color="rgb(48,49,86)"/>
		<stop class="stop1" offset="1" stop-opacity="1" stop-color="rgb(77,76,113)"/>
	</linearGradient>
	<linearGradient id="Gradient26" gradientUnits="userSpaceOnUse" x1="393.03" y1="388.629" x2="379.859" y2="301.267">
		<stop class="stop0" offset="0" stop-opacity="1" stop-color="rgb(160,150,208)"/>
		<stop class="stop1" offset="1" stop-opacity="1" stop-color="rgb(201,197,240)"/>
	</linearGradient>
	<linearGradient id="Gradient27" gradientUnits="userSpaceOnUse" x1="298.601" y1="523.853" x2="332.257" y2="326.214">
		<stop class="stop0" offset="0" stop-opacity="1" stop-color="rgb(6,7,29)"/>
		<stop class="stop1" offset="1" stop-opacity="1" stop-color="rgb(44,44,81)"/>
	</linearGradient>
	<linearGradient id="Gradient28" gradientUnits="userSpaceOnUse" x1="967.532" y1="898.56" x2="970.573" y2="932.609">
		<stop class="stop0" offset="0" stop-opacity="1" stop-color="rgb(80,80,147)"/>
		<stop class="stop1" offset="1" stop-opacity="1" stop-color="rgb(134,134,212)"/>
	</linearGradient>
	<linearGradient id="Gradient29" gradientUnits="userSpaceOnUse" x1="282.873" y1="887.971" x2="298.369" y2="942.808">
		<stop class="stop0" offset="0" stop-opacity="1" stop-color="rgb(98,100,164)"/>
		<stop class="stop1" offset="1" stop-opacity="1" stop-color="rgb(159,158,228)"/>
	</linearGradient>
	<linearGradient id="Gradient30" gradientUnits="userSpaceOnUse" x1="1001.02" y1="710.117" x2="972.98" y2="711.948">
		<stop class="stop0" offset="0" stop-opacity="1" stop-color="rgb(26,28,88)"/>
		<stop class="stop1" offset="1" stop-opacity="1" stop-color="rgb(59,58,118)"/>
	</linearGradient>
	<linearGradient id="Gradient31" gradientUnits="userSpaceOnUse" x1="591.793" y1="1003.14" x2="644.598" y2="483.1">
		<stop class="stop0" offset="0" stop-opacity="1" stop-color="rgb(9,10,34)"/>
		<stop class="stop1" offset="1" stop-opacity="1" stop-color="rgb(34,36,70)"/>
	</linearGradient>
	<linearGradient id="Gradient32" gradientUnits="userSpaceOnUse" x1="695.868" y1="980.693" x2="583.444" y2="431.833">
		<stop class="stop0" offset="0" stop-opacity="1" stop-color="rgb(0,0,7)"/>
		<stop class="stop1" offset="1" stop-opacity="1" stop-color="rgb(24,25,62)"/>
	</linearGradient>
</defs>
<path transform="translate(0,0)" fill="none" d="M 0 0 L 1200 0 L 1200 1200 L 0 1200 L 0 0 z"/>
<path transform="translate(0,0)" fill="url(#Gradient32)" d="M 323.147 305.868 C 335.478 302.16 368.169 296.876 382.174 294.396 C 383.957 296.738 383.55 295.634 383.999 298.562 L 384.397 299.888 L 385.469 300.509 C 388.141 303.143 402.679 317.237 405.423 319.256 C 411.572 325.754 444.931 360.389 448.153 365.244 C 451.397 368.505 458.296 375.868 461.708 377.919 L 464.149 380.138 C 457.973 381.246 451.509 382.565 445.28 383.041 L 436.719 384.559 C 425.169 386.67 410.487 390.147 399.516 391.87 C 393.288 402.111 388.539 398.588 385.942 403.666 C 387.309 405.487 388.133 405.554 390.27 406.318 C 403.229 409.139 412.346 409.027 425.463 409.047 C 454.527 406.208 483.251 406.9 512.351 405.648 C 518.917 405.06 516.814 401.721 525.021 400.327 C 531.051 399.303 533.836 399.789 539.938 400.071 C 546.033 400.127 563.148 397.592 570.388 396.738 C 564.426 401.608 558.505 398.502 554.864 401.403 C 561.46 402.231 597.837 402.278 599.726 403.723 L 608.42 404.106 C 638.106 403.938 667.793 403.948 697.479 404.135 C 720.773 403.74 744.07 403.508 767.368 403.44 C 775.346 403.416 791.703 402.843 798.593 403.595 C 805.165 405.013 834.081 403.446 842.156 403.338 C 859.48 403.106 877.594 403.225 894.876 402.777 C 898.945 400.779 974.191 400.63 984.557 400.873 C 997.859 401.192 1018.43 402.489 1022.76 417.717 C 1024.33 424.65 1025.86 441.719 1025.52 448.905 C 1024.81 464.1 1031.03 493.973 1022.93 506.347 C 1020.72 508.941 1015.01 515.295 1013.52 517.91 C 1015.49 527.366 1014.9 560.857 1014.9 572.086 L 1014.97 671.598 L 1015.24 815.141 C 1015.37 835.411 1015.27 855.634 1015.2 875.893 C 1015.1 907.532 1015.47 939.043 989.239 961.704 L 990.893 964.02 C 996.975 964.718 1003.04 965.531 1009.09 966.459 C 1003.79 967.886 1000.97 964.811 995.613 966.634 C 995.135 967.823 994.816 967.67 995.387 968.861 C 1000.54 979.623 986.548 978.833 991.667 989.918 L 995.452 990.139 C 978.314 1004.86 723.382 1003.84 685.259 1003.49 C 649.75 1003.16 587.623 995.041 546.007 997.694 C 517.9 999.486 467.175 1000.31 439.474 997.107 C 401.143 997.241 362.812 996.595 324.507 995.168 C 321.996 989.9 319.816 983.659 314.413 981.366 C 312.316 981.855 310.197 982.249 308.064 982.548 C 295.944 984.181 252.856 984.518 250.988 969.075 C 252.104 965.592 253.01 964.937 255.522 962.447 C 258.665 962.813 260.965 963.474 263.813 961.692 C 260.654 959.33 259.251 958.455 255.805 956.587 C 222.818 930.008 229.025 885.242 228.634 846.972 C 228.145 806.961 227.98 766.946 228.141 726.932 L 227.888 588.653 C 227.896 569.492 227.053 540.029 228.25 521.346 C 227.415 511.91 217.093 506.352 213.934 496.933 C 210.015 485.25 211.048 359.86 213.215 341.255 C 213.633 337.666 214.602 334.761 216.217 331.542 C 222.593 319.184 234.515 317.056 246.999 315.561 C 257.478 312.782 292.328 308.67 305.346 306.84 L 309.93 311.424 L 311.672 310.704 L 312.138 309.458 C 315.182 306.827 319.178 305.827 323.147 305.868 z"/>
<path transform="translate(0,0)" fill="url(#Gradient31)" d="M 1013.52 517.91 C 1015.49 527.366 1014.9 560.857 1014.9 572.086 L 1014.97 671.598 L 1015.24 815.141 C 1015.37 835.411 1015.27 855.634 1015.2 875.893 C 1015.1 907.532 1015.47 939.043 989.239 961.704 L 990.893 964.02 C 996.975 964.718 1003.04 965.531 1009.09 966.459 C 1003.79 967.886 1000.97 964.811 995.613 966.634 C 995.135 967.823 994.816 967.67 995.387 968.861 C 1000.54 979.623 986.548 978.833 991.667 989.918 L 995.452 990.139 C 978.314 1004.86 723.382 1003.84 685.259 1003.49 C 649.75 1003.16 587.623 995.041 546.007 997.694 C 517.9 999.486 467.175 1000.31 439.474 997.107 C 401.143 997.241 362.812 996.595 324.507 995.168 C 321.996 989.9 319.816 983.659 314.413 981.366 C 312.316 981.855 310.197 982.249 308.064 982.548 C 295.944 984.181 252.856 984.518 250.988 969.075 C 252.104 965.592 253.01 964.937 255.522 962.447 C 258.665 962.813 260.965 963.474 263.813 961.692 C 260.654 959.33 259.251 958.455 255.805 956.587 C 222.818 930.008 229.025 885.242 228.634 846.972 C 228.145 806.961 227.98 766.946 228.141 726.932 L 227.888 588.653 C 227.896 569.492 227.053 540.029 228.25 521.346 C 231.337 522.138 233.106 521.248 236.07 520.368 C 245.362 522.333 242.107 536.005 244.753 542.81 C 246.224 535.252 242.684 529.566 244.8 524.642 C 247.885 523.431 250.299 525.013 252.439 527.352 C 253.562 532.938 250.713 531.956 252.399 537.455 C 253.364 534.052 253.081 532.738 255.392 530.786 C 259.79 534.504 259.269 576.625 259.169 584.674 C 257.554 597.241 258.502 632.394 258.562 646.896 L 259.712 780.799 C 259.761 789.672 260.942 819.954 259.039 826.569 C 258.78 842.626 258.898 858.688 259.392 874.74 C 259.522 880.441 260.2 893.737 259.729 898.944 C 273.58 941.636 298.701 927.651 333.476 931.838 C 367.074 930.168 410.948 931.685 445.339 931.686 L 645.828 931.317 L 842.47 931.488 C 869.936 931.565 909.055 930.492 935.805 931.854 C 948.521 930.431 959.298 932.051 970.359 922.652 C 982.819 912.063 983.029 896.348 984.157 881.406 C 983.798 875.762 984.767 859.38 984.845 852.603 C 984.984 832.863 984.98 813.122 984.832 793.381 C 984.499 704.277 985.989 615.835 982.337 526.778 C 987.652 525.125 989.432 524.388 994.921 524.483 C 999.425 521.706 1008.28 518.75 1013.52 517.91 z"/>
<path transform="translate(0,0)" fill="rgb(148,147,160)" d="M 989.239 961.704 L 990.893 964.02 C 996.975 964.718 1003.04 965.531 1009.09 966.459 C 1003.79 967.886 1000.97 964.811 995.613 966.634 C 995.135 967.823 994.816 967.67 995.387 968.861 C 1000.54 979.623 986.548 978.833 991.667 989.918 L 995.452 990.139 C 978.314 1004.86 723.382 1003.84 685.259 1003.49 C 649.75 1003.16 587.623 995.041 546.007 997.694 C 517.9 999.486 467.175 1000.31 439.474 997.107 C 401.143 997.241 362.812 996.595 324.507 995.168 C 321.996 989.9 319.816 983.659 314.413 981.366 C 312.316 981.855 310.197 982.249 308.064 982.548 C 295.944 984.181 252.856 984.518 250.988 969.075 C 252.104 965.592 253.01 964.937 255.522 962.447 C 258.665 962.813 260.965 963.474 263.813 961.692 C 273.765 967.321 283.767 974.686 295.565 975.615 C 310.893 976.822 326.737 976.95 342.091 977.076 L 422.698 977.2 C 512.776 977.695 602.855 977.719 692.933 977.272 L 860.787 977.324 C 890.768 977.226 941.002 978.249 968.933 972.256 C 976.57 970.053 982.551 965.885 989.239 961.704 z"/>
<path transform="translate(0,0)" fill="rgb(225,216,231)" d="M 989.239 961.704 L 990.893 964.02 C 996.975 964.718 1003.04 965.531 1009.09 966.459 C 1003.79 967.886 1000.97 964.811 995.613 966.634 C 995.135 967.823 994.816 967.67 995.387 968.861 C 1000.54 979.623 986.548 978.833 991.667 989.918 L 995.452 990.139 C 978.314 1004.86 723.382 1003.84 685.259 1003.49 C 649.75 1003.16 587.623 995.041 546.007 997.694 C 517.9 999.486 467.175 1000.31 439.474 997.107 C 452.964 995.802 469.868 996.642 483.641 996.381 C 546.183 995.433 607.496 1001 669.747 992.363 C 680.802 990.829 706.295 992.539 718.556 992.422 L 827.262 991.494 C 843.558 991.499 983.891 992.327 985.204 976.476 C 978.124 975.601 973.812 976.284 968.933 972.256 C 976.57 970.053 982.551 965.885 989.239 961.704 z"/>
<path transform="translate(0,0)" fill="rgb(166,159,232)" d="M 333.476 931.838 C 367.074 930.168 410.948 931.685 445.339 931.686 L 645.828 931.317 L 842.47 931.488 C 869.936 931.565 909.055 930.492 935.805 931.854 C 939.663 932.313 947.651 932.91 950.831 934.389 L 948.915 933.503 L 948.404 935.004 C 943.218 935.34 912.451 936.948 909.426 937.829 C 888.59 938.971 858.015 937.981 836.421 937.952 L 697.403 937.948 L 478.185 938.031 C 431.994 938.067 384.675 938.625 338.62 937.728 C 335.027 936.553 317.689 933.646 312.258 932.467 C 319.649 932.499 326.101 932.644 333.476 931.838 z"/>
<path transform="translate(0,0)" fill="url(#Gradient30)" d="M 982.337 526.778 C 987.652 525.125 989.432 524.388 994.921 524.483 C 991.84 527.135 991.028 532.332 990.916 536.248 C 990.039 566.759 990.495 598.102 990.51 628.617 L 990.582 812.859 C 990.583 823.275 990.695 888.175 989.188 894.849 C 989.016 890.048 989.108 886.059 989.284 881.252 C 987.906 886.192 986.865 891.081 985.76 896.082 C 985.629 890.732 985.643 887.639 984.407 882.434 L 984.157 881.406 C 983.798 875.762 984.767 859.38 984.845 852.603 C 984.984 832.863 984.98 813.122 984.832 793.381 C 984.499 704.277 985.989 615.835 982.337 526.778 z"/>
<path transform="translate(0,0)" fill="url(#Gradient29)" d="M 255.384 899.366 C 255.955 896.496 256.262 895.814 257.403 893.087 L 258.349 893.41 L 259.729 898.944 C 273.58 941.636 298.701 927.651 333.476 931.838 C 326.101 932.644 319.649 932.499 312.258 932.467 C 317.689 933.646 335.027 936.553 338.62 937.728 C 299.474 938.259 265.737 947.294 255.384 899.366 z"/>
<path transform="translate(0,0)" fill="url(#Gradient28)" d="M 984.157 881.406 L 984.407 882.434 C 985.643 887.639 985.629 890.732 985.76 896.082 C 986.865 891.081 987.906 886.192 989.284 881.252 C 989.108 886.059 989.016 890.048 989.188 894.849 C 982.92 942.815 946.668 938.429 909.426 937.829 C 912.451 936.948 943.218 935.34 948.404 935.004 L 948.915 933.503 L 950.831 934.389 C 947.651 932.91 939.663 932.313 935.805 931.854 C 948.521 930.431 959.298 932.051 970.359 922.652 C 982.819 912.063 983.029 896.348 984.157 881.406 z"/>
<path transform="translate(0,0)" fill="rgb(80,76,118)" d="M 255.384 899.366 C 254.462 892.913 255.062 882.074 254.717 875.202 C 253.594 852.788 254.9 831.932 255.641 809.638 C 256.939 823.887 255.01 842.506 256.238 859.738 C 258.009 856.207 257.888 812.119 258.314 804.148 C 258.593 811.62 258.835 819.094 259.039 826.569 C 258.78 842.626 258.898 858.688 259.392 874.74 C 259.522 880.441 260.2 893.737 259.729 898.944 L 258.349 893.41 L 257.403 893.087 C 256.262 895.814 255.955 896.496 255.384 899.366 z"/>
<path transform="translate(0,0)" fill="url(#Gradient27)" d="M 323.147 305.868 C 335.478 302.16 368.169 296.876 382.174 294.396 C 383.957 296.738 383.55 295.634 383.999 298.562 L 384.397 299.888 L 385.469 300.509 C 388.141 303.143 402.679 317.237 405.423 319.256 C 411.572 325.754 444.931 360.389 448.153 365.244 C 451.397 368.505 458.296 375.868 461.708 377.919 L 464.149 380.138 C 457.973 381.246 451.509 382.565 445.28 383.041 L 436.719 384.559 C 425.169 386.67 410.487 390.147 399.516 391.87 C 393.288 402.111 388.539 398.588 385.942 403.666 C 387.309 405.487 388.133 405.554 390.27 406.318 C 403.229 409.139 412.346 409.027 425.463 409.047 C 420.585 410.206 420.801 409.331 418.074 412.472 C 417.561 417.26 419.057 419.38 419.255 423.083 L 422.192 432.178 C 426.692 447.95 429.156 467.987 422.822 484.393 C 419.861 492.065 407.534 497.563 408.638 501.506 C 415.758 503.716 439.554 499.006 442.651 502.932 L 282.931 505.016 C 274.56 505.102 266.443 505.036 258.082 504.714 C 251.021 504.442 242.662 502.704 235.983 503.473 C 235.144 504.484 234.26 509.457 233.067 511.897 L 233.388 514.646 C 239.401 519.185 256.525 522.114 258.337 528.366 C 260.324 535.224 261.019 581.959 259.169 584.674 C 259.269 576.625 259.79 534.504 255.392 530.786 C 253.081 532.738 253.364 534.052 252.399 537.455 C 250.713 531.956 253.562 532.938 252.439 527.352 C 250.299 525.013 247.885 523.431 244.8 524.642 C 242.684 529.566 246.224 535.252 244.753 542.81 C 242.107 536.005 245.362 522.333 236.07 520.368 C 233.106 521.248 231.337 522.138 228.25 521.346 C 227.415 511.91 217.093 506.352 213.934 496.933 C 210.015 485.25 211.048 359.86 213.215 341.255 C 213.633 337.666 214.602 334.761 216.217 331.542 C 222.593 319.184 234.515 317.056 246.999 315.561 C 257.478 312.782 292.328 308.67 305.346 306.84 L 309.93 311.424 L 311.672 310.704 L 312.138 309.458 C 315.182 306.827 319.178 305.827 323.147 305.868 z"/>
<path transform="translate(0,0)" fill="url(#Gradient26)" d="M 323.147 305.868 C 335.478 302.16 368.169 296.876 382.174 294.396 C 383.957 296.738 383.55 295.634 383.999 298.562 L 384.397 299.888 L 385.469 300.509 C 388.141 303.143 402.679 317.237 405.423 319.256 C 411.572 325.754 444.931 360.389 448.153 365.244 C 451.397 368.505 458.296 375.868 461.708 377.919 L 464.149 380.138 C 457.973 381.246 451.509 382.565 445.28 383.041 L 436.719 384.559 C 425.169 386.67 410.487 390.147 399.516 391.87 L 397.434 391.83 C 390.887 387.802 372.637 366.188 366.526 359.734 C 354.555 347.091 342.984 334.263 329.474 323.016 C 328.211 321.414 323.663 317.766 321.855 316.24 C 317.529 312.857 316.877 312.336 311.672 310.704 L 312.138 309.458 C 315.182 306.827 319.178 305.827 323.147 305.868 z"/>
<path transform="translate(0,0)" fill="rgb(226,216,247)" d="M 323.147 305.868 C 335.478 302.16 368.169 296.876 382.174 294.396 C 383.957 296.738 383.55 295.634 383.999 298.562 C 375.624 300.935 325.581 313.538 323.147 305.868 z"/>
<path transform="translate(0,0)" fill="rgb(166,159,232)" d="M 397.434 391.83 L 396.118 388.02 C 402.807 377.28 426.601 379.371 436.719 384.559 C 425.169 386.67 410.487 390.147 399.516 391.87 L 397.434 391.83 z"/>
<path transform="translate(0,0)" fill="rgb(166,159,232)" d="M 448.153 365.244 C 451.397 368.505 458.296 375.868 461.708 377.919 L 464.149 380.138 C 457.973 381.246 451.509 382.565 445.28 383.041 C 441.155 381.886 440.104 381.94 439.203 377.862 C 441.399 372.613 447.284 371.405 452.387 372.636 C 449.984 369.961 449.68 369.3 448.465 366.083 L 448.153 365.244 z"/>
<path transform="translate(0,0)" fill="url(#Gradient25)" d="M 246.999 315.561 C 257.478 312.782 292.328 308.67 305.346 306.84 L 309.93 311.424 L 311.672 310.704 C 316.877 312.336 317.529 312.857 321.855 316.24 C 323.663 317.766 328.211 321.414 329.474 323.016 C 330.295 327.466 330.594 328.04 332.841 331.936 C 336.059 333.594 352.404 351.265 354.575 354.539 C 346.044 360.047 321.545 353.57 313.227 347.432 C 303.868 340.525 296.755 333.351 285.325 330.438 C 274.332 329.93 266.574 327.849 255.006 328.901 C 249.82 328.37 248.956 328.906 243.058 327.734 C 241.781 326.626 238.928 326.539 236.941 326.23 C 240.027 325.475 246.359 322.961 249.582 321.787 C 247.319 320.183 246.621 320.233 243.902 319.72 L 243.028 319.562 C 245.527 319.267 245.435 319.369 247.266 317.7 L 246.999 315.561 z"/>
<path transform="translate(0,0)" fill="rgb(98,96,140)" d="M 246.999 315.561 C 257.478 312.782 292.328 308.67 305.346 306.84 L 309.93 311.424 C 298.762 320.652 262.961 318.669 249.582 321.787 C 247.319 320.183 246.621 320.233 243.902 319.72 L 243.028 319.562 C 245.527 319.267 245.435 319.369 247.266 317.7 L 246.999 315.561 z"/>
<path transform="translate(0,0)" fill="rgb(56,53,94)" d="M 321.855 316.24 C 323.663 317.766 328.211 321.414 329.474 323.016 C 330.295 327.466 330.594 328.04 332.841 331.936 C 325.593 326.471 323.86 325.138 321.855 316.24 z"/>
<path transform="translate(0,0)" fill="url(#Gradient24)" d="M 255.006 328.901 C 266.574 327.849 274.332 329.93 285.325 330.438 C 288.568 332.779 293.517 335.973 294.79 339.621 C 304.774 368.223 285.441 374.512 262.985 366.771 C 262.599 365.773 262.712 364.986 262.678 363.839 C 265.038 361.233 263.847 362.05 267.605 361.006 L 268.085 360.14 C 272.29 355.377 266.268 353.512 265.612 349.719 C 267.55 347.399 270.008 347.269 273.099 346.551 C 277.729 344.496 281.064 349.13 287.927 343.314 C 284.776 340.86 280.738 339.821 276.914 338.526 C 271.475 336.293 262.163 339.159 254.061 337.733 C 250.023 343.865 247.078 356.017 240.537 354.951 C 243.843 341.295 244.149 338.176 255.006 328.901 z"/>
<path transform="translate(0,0)" fill="rgb(80,76,118)" d="M 287.927 343.314 C 291.794 351.62 291.12 354.375 288.068 362.758 C 283.209 364.294 272.733 363.285 267.605 361.006 L 268.085 360.14 C 272.29 355.377 266.268 353.512 265.612 349.719 C 267.55 347.399 270.008 347.269 273.099 346.551 C 277.729 344.496 281.064 349.13 287.927 343.314 z"/>
<path transform="translate(0,0)" fill="rgb(29,29,64)" d="M 273.099 346.551 L 277.047 347.515 L 277.278 349.029 L 276.469 349.86 C 274.179 352.231 273.119 352.939 272.501 356.149 C 275.112 363.283 282.916 361.611 288.068 362.758 C 283.209 364.294 272.733 363.285 267.605 361.006 L 268.085 360.14 C 272.29 355.377 266.268 353.512 265.612 349.719 C 267.55 347.399 270.008 347.269 273.099 346.551 z"/>
<path transform="translate(0,0)" fill="rgb(80,76,118)" d="M 216.217 331.542 C 222.593 319.184 234.515 317.056 246.999 315.561 L 247.266 317.7 C 245.435 319.369 245.527 319.267 243.028 319.562 L 243.902 319.72 C 246.621 320.233 247.319 320.183 249.582 321.787 C 246.359 322.961 240.027 325.475 236.941 326.23 L 235.802 326.463 C 228.153 330.912 223.329 338.959 220.6 347.211 C 219.921 350.462 220.615 349.303 217.837 351.493 C 215.28 346.46 217.159 339.154 218.106 333.703 L 216.217 331.542 z"/>
<path transform="translate(0,0)" fill="rgb(56,53,94)" d="M 419.255 423.083 C 415.879 423.157 414.256 426.359 411.864 425.101 C 407.92 423.025 404.455 419.633 400.652 417.19 C 396.166 414.309 382.05 411.013 379.992 406.894 C 379.945 407.173 379.934 406.971 380.267 407.601 L 382.493 406.105 L 380.67 406.351 C 383.486 404.944 386.934 405.884 390.27 406.318 C 403.229 409.139 412.346 409.027 425.463 409.047 C 420.585 410.206 420.801 409.331 418.074 412.472 C 417.561 417.26 419.057 419.38 419.255 423.083 z"/>
<path transform="translate(0,0)" fill="rgb(56,53,94)" d="M 236.941 326.23 C 238.928 326.539 241.781 326.626 243.058 327.734 C 248.956 328.906 249.82 328.37 255.006 328.901 C 244.149 338.176 243.843 341.295 240.537 354.951 L 238.009 355.63 L 235.877 354.153 C 230.235 342.58 236.072 335.774 235.802 326.463 L 236.941 326.23 z"/>
<path transform="translate(0,0)" fill="rgb(225,216,231)" d="M 276.914 338.526 C 280.738 339.821 284.776 340.86 287.927 343.314 C 281.064 349.13 277.729 344.496 273.099 346.551 C 270.008 347.269 267.55 347.399 265.612 349.719 C 266.268 353.512 272.29 355.377 268.085 360.14 C 260.869 356.056 258.441 355.657 260.253 347.247 C 262.225 346.302 263.161 343.609 264.459 341.314 C 268.608 338.758 271.921 339.125 276.914 338.526 z"/>
<path transform="translate(0,0)" fill="rgb(4,5,26)" d="M 262.985 366.771 C 256.338 365.356 252.87 359.762 252.896 353.269 C 253.932 349.741 255.966 348.799 258.951 346.722 L 260.253 347.247 C 258.441 355.657 260.869 356.056 268.085 360.14 L 267.605 361.006 C 263.847 362.05 265.038 361.233 262.678 363.839 C 262.712 364.986 262.599 365.773 262.985 366.771 z"/>
<path transform="translate(0,0)" fill="rgb(56,53,94)" d="M 220.6 347.211 C 222.294 357.73 223.608 363.049 222.019 373.677 C 220.732 368.116 217.686 356.523 217.837 351.493 C 220.615 349.303 219.921 350.462 220.6 347.211 z"/>
<path transform="translate(0,0)" fill="rgb(80,76,118)" d="M 252.612 447.8 C 249.217 446.259 249.976 447.197 248.505 444.399 C 249.357 430.148 262.658 423.661 275.394 425.216 C 300.567 428.29 300.211 458.042 289.26 474.728 C 278.037 475.106 258.989 477.845 258.544 462.062 C 252.457 457.869 253.295 454.669 252.612 447.8 z"/>
<path transform="translate(0,0)" fill="rgb(4,5,26)" d="M 252.612 447.8 C 249.217 446.259 249.976 447.197 248.505 444.399 C 249.357 430.148 262.658 423.661 275.394 425.216 C 300.567 428.29 300.211 458.042 289.26 474.728 C 278.037 475.106 258.989 477.845 258.544 462.062 C 264.53 466.43 272.06 472.978 280.23 469.469 C 283.311 468.146 283.756 464.216 284.729 461.215 C 300.224 442.021 263.04 413.467 252.612 447.8 z"/>
<path transform="translate(0,0)" fill="rgb(4,5,26)" d="M 273.597 453.877 C 270.817 455.243 271.657 455.356 269.193 454.846 C 266.653 450.565 270.228 440.454 272.413 436.31 L 275.627 436.256 L 276.492 437.899 C 275.265 441.79 275.069 443.084 275.38 447.188 L 273.597 453.877 z"/>
<path transform="translate(0,0)" fill="rgb(226,216,247)" d="M 275.38 447.188 L 278.44 447.636 C 280.575 450.644 284.166 457.634 284.729 461.215 C 281.549 461.586 279.276 461.65 276.334 460.364 C 273.554 457.171 274.398 458.66 273.597 453.877 L 275.38 447.188 z"/>
<path transform="translate(0,0)" fill="rgb(104,102,162)" d="M 368.11 456.05 C 367.833 446.919 373.478 437.846 383.372 437.364 C 396.035 439.39 399.094 441.451 398.068 454.624 C 398.207 468.089 395.116 467.835 383.112 466.82 C 375.877 464.579 372.496 461.931 368.11 456.05 z"/>
<path transform="translate(0,0)" fill="rgb(98,96,140)" d="M 383.372 437.364 C 396.035 439.39 399.094 441.451 398.068 454.624 L 397.314 454.771 C 396.724 453.137 396.396 452.967 395.338 451.576 C 392.154 451.289 393.367 451.154 390.163 453.369 C 388.513 452.982 387.537 452.544 385.97 451.943 C 383.89 448.4 384.607 448.645 384.668 443.894 C 384.698 441.484 384.022 439.675 383.372 437.364 z"/>
<path transform="translate(0,0)" fill="rgb(126,121,179)" d="M 378.163 452.493 C 385.221 452.955 384.801 458.318 384.85 464.489 C 384.467 465.032 383.534 466.445 383.112 466.82 C 375.877 464.579 372.496 461.931 368.11 456.05 L 369.116 454.968 C 373.121 454.259 374.409 453.838 378.163 452.493 z"/>
<path transform="translate(0,0)" fill="rgb(126,121,179)" d="M 390.163 453.369 C 393.367 451.154 392.154 451.289 395.338 451.576 C 396.396 452.967 396.724 453.137 397.314 454.771 L 396.61 457.734 C 393.985 460.654 395.297 459.875 391.714 460.898 C 389.161 459.59 390.025 460.361 388.615 457.705 L 390.163 453.369 z"/>
<path transform="translate(0,0)" fill="url(#Gradient23)" d="M 798.593 403.595 C 805.165 405.013 834.081 403.446 842.156 403.338 C 859.48 403.106 877.594 403.225 894.876 402.777 L 895.722 404.442 L 892.223 408.867 L 891.479 409.388 L 885.8 416.596 C 874.243 433.644 862.561 450.608 850.756 467.486 C 843.709 477.439 832.597 492.018 826.57 502.067 C 802.478 503.897 778.756 503.14 754.624 502.797 C 747.672 502.698 733.403 503.057 727.281 501.973 L 720.738 502.346 L 720.04 502.893 C 714.604 503.691 701.366 503.345 695.303 503.33 L 639.646 502.815 L 567.232 502.962 C 558.347 502.944 539.815 503.381 531.653 502.207 C 551.238 471.74 573.268 443.257 593.483 413.215 C 594.349 411.929 596.345 410.705 597.721 410.051 L 598.846 409.582 C 597.33 407.8 592.393 407.61 589.473 407.14 C 595.896 406.468 607.96 406.721 614.802 406.67 L 615.336 405.086 L 617.214 405.836 C 614.288 405.233 611.356 404.657 608.42 404.106 C 638.106 403.938 667.793 403.948 697.479 404.135 C 720.773 403.74 744.07 403.508 767.368 403.44 C 775.346 403.416 791.703 402.843 798.593 403.595 z"/>
<path transform="translate(0,0)" fill="url(#Gradient22)" d="M 798.593 403.595 C 805.165 405.013 834.081 403.446 842.156 403.338 C 859.48 403.106 877.594 403.225 894.876 402.777 L 895.722 404.442 L 892.223 408.867 L 891.479 409.388 L 885.8 416.596 C 874.243 433.644 862.561 450.608 850.756 467.486 C 843.709 477.439 832.597 492.018 826.57 502.067 C 802.478 503.897 778.756 503.14 754.624 502.797 C 747.672 502.698 733.403 503.057 727.281 501.973 C 742.622 476.647 771.846 437.011 791.208 414.042 L 797.867 408.293 L 798.054 405.466 L 798.593 403.595 z"/>
<path transform="translate(0,0)" fill="url(#Gradient21)" d="M 798.593 403.595 C 805.165 405.013 834.081 403.446 842.156 403.338 C 859.48 403.106 877.594 403.225 894.876 402.777 L 895.722 404.442 L 892.223 408.867 L 891.479 409.388 L 885.8 416.596 C 880.527 416.289 878.993 418.224 874.075 420.582 C 864.391 419.771 854.345 416.403 848.465 415.91 C 824.771 413.925 820.606 421.035 797.867 408.293 L 798.054 405.466 L 798.593 403.595 z"/>
<path transform="translate(0,0)" fill="rgb(56,53,94)" d="M 874.075 420.582 C 876.031 417.802 884.465 409.821 887.879 408.472 C 889.319 407.903 889.826 408.587 891.479 409.388 L 885.8 416.596 C 880.527 416.289 878.993 418.224 874.075 420.582 z"/>
<path transform="translate(0,0)" fill="url(#Gradient20)" d="M 697.479 404.135 C 720.773 403.74 744.07 403.508 767.368 403.44 C 775.346 403.416 791.703 402.843 798.593 403.595 L 798.054 405.466 L 797.867 408.293 L 791.208 414.042 C 771.846 437.011 742.622 476.647 727.281 501.973 L 720.738 502.346 C 694.984 501.786 667.789 502.115 641.927 502.037 C 664.825 473.686 683.595 441.712 708.998 411.98 C 710.527 410.184 712.689 408.016 714.345 406.248 L 714.336 405.977 C 712.441 404.646 701.609 404.614 697.479 404.135 z"/>
<path transform="translate(0,0)" fill="rgb(225,216,231)" d="M 697.479 404.135 C 720.773 403.74 744.07 403.508 767.368 403.44 C 775.346 403.416 791.703 402.843 798.593 403.595 L 798.054 405.466 L 797.867 408.293 L 791.208 414.042 C 784.78 409.92 747.685 412.277 738.032 412.28 C 732.339 412.282 714.938 415.437 710.043 414.208 L 708.998 411.98 C 710.527 410.184 712.689 408.016 714.345 406.248 L 714.336 405.977 C 712.441 404.646 701.609 404.614 697.479 404.135 z"/>
<path transform="translate(0,0)" fill="rgb(148,147,160)" d="M 697.479 404.135 C 720.773 403.74 744.07 403.508 767.368 403.44 C 775.346 403.416 791.703 402.843 798.593 403.595 L 798.054 405.466 C 787.63 405.467 719.065 407.918 714.345 406.248 L 714.336 405.977 C 712.441 404.646 701.609 404.614 697.479 404.135 z"/>
<path transform="translate(0,0)" fill="rgb(98,96,140)" d="M 608.42 404.106 C 638.106 403.938 667.793 403.948 697.479 404.135 C 701.609 404.614 712.441 404.646 714.336 405.977 L 714.345 406.248 C 712.689 408.016 710.527 410.184 708.998 411.98 C 705.248 410.501 697.355 413.203 692.254 413.699 C 665.729 416.278 640.751 416.823 614.405 411.989 C 609.125 411.021 603.014 412.238 597.721 410.051 L 598.846 409.582 C 597.33 407.8 592.393 407.61 589.473 407.14 C 595.896 406.468 607.96 406.721 614.802 406.67 L 615.336 405.086 L 617.214 405.836 C 614.288 405.233 611.356 404.657 608.42 404.106 z"/>
<path transform="translate(0,0)" fill="url(#Gradient19)" d="M 894.876 402.777 C 898.945 400.779 974.191 400.63 984.557 400.873 C 997.859 401.192 1018.43 402.489 1022.76 417.717 C 1024.33 424.65 1025.86 441.719 1025.52 448.905 C 1024.81 464.1 1031.03 493.973 1022.93 506.347 C 1019.04 502.669 976.485 501.411 970.236 503.255 C 937.993 502.818 905.396 503.629 873.157 503.245 C 863.974 503.136 838.995 503.763 831.435 502.08 L 826.57 502.067 C 832.597 492.018 843.709 477.439 850.756 467.486 C 862.561 450.608 874.243 433.644 885.8 416.596 L 891.479 409.388 L 892.223 408.867 L 895.722 404.442 L 894.876 402.777 z"/>
<path transform="translate(0,0)" fill="rgb(29,29,64)" d="M 984.557 400.873 C 997.859 401.192 1018.43 402.489 1022.76 417.717 C 1024.33 424.65 1025.86 441.719 1025.52 448.905 C 1024.81 464.1 1031.03 493.973 1022.93 506.347 C 1019.04 502.669 976.485 501.411 970.236 503.255 C 937.993 502.818 905.396 503.629 873.157 503.245 C 863.974 503.136 838.995 503.763 831.435 502.08 C 859.208 501.37 888.732 502.241 916.81 502.002 C 926.788 484.7 943.84 463.697 956.179 446.932 L 964.513 435.514 C 970.893 426.331 977.401 417.237 984.034 408.235 L 984.809 407.98 L 988.391 406.521 L 989.14 404.57 L 984.557 400.873 z"/>
<path transform="translate(0,0)" fill="rgb(80,76,118)" d="M 984.557 400.873 C 997.859 401.192 1018.43 402.489 1022.76 417.717 C 1022.24 417.862 1018.85 418.612 1018.55 418.486 C 1007.71 413.917 996.48 409.698 984.809 407.98 L 988.391 406.521 L 989.14 404.57 L 984.557 400.873 z"/>
<path transform="translate(0,0)" fill="rgb(225,216,231)" d="M 894.876 402.777 C 898.945 400.779 974.191 400.63 984.557 400.873 L 989.14 404.57 L 988.391 406.521 L 984.809 407.98 L 984.034 408.235 C 980.981 407.407 980.334 407.517 977.156 407.754 C 952.528 408.567 927.892 407.606 903.318 408.854 C 900.268 409.009 897.457 410.285 893.907 410.596 L 892.223 408.867 L 895.722 404.442 L 894.876 402.777 z"/>
<path transform="translate(0,0)" fill="rgb(148,147,160)" d="M 894.876 402.777 C 898.945 400.779 974.191 400.63 984.557 400.873 L 989.14 404.57 C 962.33 402.671 922.078 401.894 895.722 404.442 L 894.876 402.777 z"/>
<path transform="translate(0,0)" fill="rgb(192,177,240)" d="M 977.156 407.754 C 980.334 407.517 980.981 407.407 984.034 408.235 C 977.401 417.237 970.893 426.331 964.513 435.514 L 961.231 432.262 C 965.888 425.854 973.577 414.625 977.156 407.754 z"/>
<path transform="translate(0,0)" fill="rgb(166,159,232)" d="M 961.231 432.262 L 964.513 435.514 L 956.179 446.932 C 954.867 445.556 954.964 445.102 954.545 443.242 C 955.466 439.137 958.62 435.66 961.231 432.262 z"/>
<path transform="translate(0,0)" fill="url(#Gradient18)" d="M 539.938 400.071 C 546.033 400.127 563.148 397.592 570.388 396.738 C 564.426 401.608 558.505 398.502 554.864 401.403 C 561.46 402.231 597.837 402.278 599.726 403.723 L 608.42 404.106 C 611.356 404.657 614.288 405.233 617.214 405.836 L 615.336 405.086 L 614.802 406.67 C 607.96 406.721 595.896 406.468 589.473 407.14 C 592.393 407.61 597.33 407.8 598.846 409.582 L 597.721 410.051 C 596.345 410.705 594.349 411.929 593.483 413.215 C 573.268 443.257 551.238 471.74 531.653 502.207 C 504.2 503.534 473.633 501.363 445.359 502.396 C 464.336 481.191 476.474 465.199 493.411 442.599 L 490.969 440.791 L 487.64 441.875 C 487.791 442.671 506.767 416.883 508.96 413.209 C 511.946 410.209 513.022 409.589 512.351 405.648 C 518.917 405.06 516.814 401.721 525.021 400.327 C 531.051 399.303 533.836 399.789 539.938 400.071 z"/>
<path transform="translate(0,0)" fill="rgb(56,53,94)" d="M 539.938 400.071 C 546.033 400.127 563.148 397.592 570.388 396.738 C 564.426 401.608 558.505 398.502 554.864 401.403 C 561.46 402.231 597.837 402.278 599.726 403.723 L 608.42 404.106 C 611.356 404.657 614.288 405.233 617.214 405.836 L 615.336 405.086 L 614.802 406.67 C 607.96 406.721 595.896 406.468 589.473 407.14 C 571.004 407.036 534.153 405.118 518.066 407.165 C 511.307 418.163 501.319 432.245 493.411 442.599 L 490.969 440.791 L 487.64 441.875 C 487.791 442.671 506.767 416.883 508.96 413.209 C 511.946 410.209 513.022 409.589 512.351 405.648 C 518.917 405.06 516.814 401.721 525.021 400.327 C 531.051 399.303 533.836 399.789 539.938 400.071 z"/>
<path transform="translate(0,0)" fill="rgb(225,216,231)" d="M 539.938 400.071 C 546.033 400.127 563.148 397.592 570.388 396.738 C 564.426 401.608 558.505 398.502 554.864 401.403 C 561.46 402.231 597.837 402.278 599.726 403.723 C 591.464 403.828 543.018 405.623 538.709 401.743 L 539.938 400.071 z"/>
<path transform="translate(0,0)" fill="url(#Gradient17)" d="M 512.351 405.648 C 513.022 409.589 511.946 410.209 508.96 413.209 C 506.767 416.883 487.791 442.671 487.64 441.875 L 490.969 440.791 L 493.411 442.599 C 476.474 465.199 464.336 481.191 445.359 502.396 C 473.633 501.363 504.2 503.534 531.653 502.207 C 539.815 503.381 558.347 502.944 567.232 502.962 L 639.646 502.815 L 695.303 503.33 C 701.366 503.345 714.604 503.691 720.04 502.893 L 720.738 502.346 L 727.281 501.973 C 733.403 503.057 747.672 502.698 754.624 502.797 C 778.756 503.14 802.478 503.897 826.57 502.067 L 831.435 502.08 C 838.995 503.763 863.974 503.136 873.157 503.245 C 905.396 503.629 937.993 502.818 970.236 503.255 C 963.363 505.088 906.433 504.069 896.977 504.024 L 757.885 503.987 L 511.898 504.222 C 497.748 504.128 452.678 506.099 442.651 502.932 C 439.554 499.006 415.758 503.716 408.638 501.506 C 407.534 497.563 419.861 492.065 422.822 484.393 C 429.156 467.987 426.692 447.95 422.192 432.178 L 419.255 423.083 C 419.057 419.38 417.561 417.26 418.074 412.472 C 420.801 409.331 420.585 410.206 425.463 409.047 C 454.527 406.208 483.251 406.9 512.351 405.648 z"/>
<path transform="translate(0,0)" fill="url(#Gradient16)" d="M 512.351 405.648 C 513.022 409.589 511.946 410.209 508.96 413.209 C 501.907 413.748 483.657 423.111 473.19 425.777 C 459.889 429.163 431.613 427.172 422.192 432.178 L 419.255 423.083 C 419.057 419.38 417.561 417.26 418.074 412.472 C 420.801 409.331 420.585 410.206 425.463 409.047 C 454.527 406.208 483.251 406.9 512.351 405.648 z"/>
<path transform="translate(0,0)" fill="url(#Gradient15)" d="M 387.262 540.838 C 412.362 539.383 448.745 540.326 474.768 540.165 C 531.486 539.461 588.21 539.279 644.932 539.62 C 676.694 539.445 708.457 539.447 740.219 539.626 C 755.033 539.635 781.25 539.199 795.211 540.572 C 791.697 541.342 773.741 541.032 769.134 541.03 L 714.229 540.991 C 705.936 540.986 692.343 540.591 684.45 541.322 C 685.608 542.86 687.29 543.217 689.155 543.933 L 689.426 545.546 C 685.694 550.323 688.8 557.557 688.955 562.981 C 689.609 585.942 694.903 603.424 707.793 622.583 C 708.056 622.974 706.313 627.063 706.035 627.67 C 710.671 640.006 716.364 652.057 716.617 665.592 L 713.828 669.619 C 718.576 678.373 762.459 693.888 768.216 705.445 C 773.886 708.867 782.09 712.697 784.409 718.728 C 784.649 723.898 784.995 728.128 785.595 733.269 C 763.562 743.023 732.789 761.759 710.88 774.058 C 667.972 798.627 624.696 822.547 581.066 845.81 C 567.196 853.297 535.88 872.018 522.744 875.72 C 516.464 873.585 514.819 872.889 509.231 869.351 C 501.002 855.095 503.296 824.344 502.985 807.195 C 502.458 778.162 503.263 748.779 502.775 719.704 C 499.138 714.693 504.834 636.385 501.198 622.413 C 499.899 623.329 494.173 628.587 493.116 628.477 C 460.308 625.07 427.251 637.415 395.479 643.846 C 366.994 649.613 338.121 652.326 310.515 662.053 C 299.477 665.943 288.3 671.999 276.621 672.651 C 275.597 674.519 276.203 710.437 275.658 715.959 C 274.797 665.254 273.167 612.355 274.221 561.63 C 273.95 554.502 274.539 547.93 275.039 540.834 C 295.955 541.055 316.872 541.088 337.789 540.931 C 352.832 540.731 372.521 539.894 387.262 540.838 z"/>
<path transform="translate(0,0)" fill="url(#Gradient14)" d="M 387.262 540.838 C 412.362 539.383 448.745 540.326 474.768 540.165 C 531.486 539.461 588.21 539.279 644.932 539.62 C 676.694 539.445 708.457 539.447 740.219 539.626 C 755.033 539.635 781.25 539.199 795.211 540.572 C 791.697 541.342 773.741 541.032 769.134 541.03 L 714.229 540.991 C 705.936 540.986 692.343 540.591 684.45 541.322 C 685.608 542.86 687.29 543.217 689.155 543.933 L 689.426 545.546 C 685.694 550.323 688.8 557.557 688.955 562.981 C 689.609 585.942 694.903 603.424 707.793 622.583 C 708.056 622.974 706.313 627.063 706.035 627.67 C 710.671 640.006 716.364 652.057 716.617 665.592 L 713.828 669.619 C 718.576 678.373 762.459 693.888 768.216 705.445 C 773.886 708.867 782.09 712.697 784.409 718.728 C 776.905 719.574 764.618 715.07 757.543 712.303 C 749.983 707.374 735.594 700.711 727.078 696.466 C 715.226 690.482 703.484 684.283 691.857 677.873 L 617.818 637.268 C 607.162 631.396 577.053 614.647 566.229 611.351 C 551.796 603.485 540.277 596.082 526.714 586.604 C 522.865 580.933 521.414 584.487 519.611 580.912 L 522.766 577.489 C 517.607 579.8 506.265 585.671 505.332 590.974 C 499.987 621.328 504.931 667.449 503.287 697.498 C 503.068 703.022 503.269 715.281 502.775 719.704 C 499.138 714.693 504.834 636.385 501.198 622.413 C 499.899 623.329 494.173 628.587 493.116 628.477 C 460.308 625.07 427.251 637.415 395.479 643.846 C 366.994 649.613 338.121 652.326 310.515 662.053 C 299.477 665.943 288.3 671.999 276.621 672.651 C 275.597 674.519 276.203 710.437 275.658 715.959 C 274.797 665.254 273.167 612.355 274.221 561.63 C 273.95 554.502 274.539 547.93 275.039 540.834 C 295.955 541.055 316.872 541.088 337.789 540.931 C 352.832 540.731 372.521 539.894 387.262 540.838 z"/>
<path transform="translate(0,0)" fill="rgb(225,216,231)" d="M 522.766 577.489 C 535.866 573.425 546.405 579.306 558.387 585.608 C 577.802 595.819 597.034 607.808 616.147 618.691 L 709.41 671.325 C 723.999 679.749 754.627 698.881 768.216 705.445 C 773.886 708.867 782.09 712.697 784.409 718.728 C 776.905 719.574 764.618 715.07 757.543 712.303 C 749.983 707.374 735.594 700.711 727.078 696.466 C 715.226 690.482 703.484 684.283 691.857 677.873 L 617.818 637.268 C 607.162 631.396 577.053 614.647 566.229 611.351 C 551.796 603.485 540.277 596.082 526.714 586.604 C 522.865 580.933 521.414 584.487 519.611 580.912 L 522.766 577.489 z"/>
<path transform="translate(0,0)" fill="url(#Gradient13)" d="M 275.039 540.834 C 295.955 541.055 316.872 541.088 337.789 540.931 C 352.832 540.731 372.521 539.894 387.262 540.838 C 382.362 543.61 362.43 541.859 355.201 542.041 C 349.793 547.534 343.887 549.709 336.909 552.676 C 314.482 562.211 298.116 584.172 276 593.824 C 275.972 597.793 276.142 606.987 275.533 610.495 C 274.208 594.905 275.572 576.199 274.221 561.63 C 273.95 554.502 274.539 547.93 275.039 540.834 z"/>
<path transform="translate(0,0)" fill="url(#Gradient12)" d="M 503.287 697.498 C 503.869 711.167 505.764 785.388 503.288 794.852 L 504.921 797.215 C 505.946 788.109 504.389 776.444 505.232 766.93 L 505.859 766.653 L 506.261 793.709 L 507.001 766.322 C 509.155 761.493 508.542 753.815 508.49 748.359 C 531.12 750.216 559.236 743.224 584.354 744.775 C 609.022 746.299 645.32 735.941 669.711 732.385 C 686.124 728.788 701.438 723.95 718.465 723.999 C 724.174 724.015 760.575 722.705 762.833 716.822 C 760.487 715.152 758.889 714.315 756.374 712.967 L 757.543 712.303 C 764.618 715.07 776.905 719.574 784.409 718.728 C 784.649 723.898 784.995 728.128 785.595 733.269 C 763.562 743.023 732.789 761.759 710.88 774.058 C 667.972 798.627 624.696 822.547 581.066 845.81 C 567.196 853.297 535.88 872.018 522.744 875.72 C 516.464 873.585 514.819 872.889 509.231 869.351 C 501.002 855.095 503.296 824.344 502.985 807.195 C 502.458 778.162 503.263 748.779 502.775 719.704 C 503.269 715.281 503.068 703.022 503.287 697.498 z"/>
<path transform="translate(0,0)" fill="rgb(166,159,232)" d="M 503.287 697.498 C 504.931 667.449 499.987 621.328 505.332 590.974 C 506.265 585.671 517.607 579.8 522.766 577.489 L 519.611 580.912 C 521.414 584.487 522.865 580.933 526.714 586.604 C 522.269 585.707 518.643 585.021 514.862 588.148 C 511.238 589.94 508.19 591.035 506.722 595.079 C 505.711 597.865 505.91 752.092 507.001 766.322 L 506.261 793.709 L 505.859 766.653 L 505.232 766.93 C 504.389 776.444 505.946 788.109 504.921 797.215 L 503.288 794.852 C 505.764 785.388 503.869 711.167 503.287 697.498 z"/>
<path transform="translate(0,0)" fill="rgb(192,177,240)" d="M 514.862 588.148 C 518.643 585.021 522.269 585.707 526.714 586.604 C 540.277 596.082 551.796 603.485 566.229 611.351 C 554.845 609.556 538.677 599.1 527.204 594.912 C 520.925 592.621 522.609 587.691 514.862 588.148 z"/>
<path transform="translate(0,0)" fill="rgb(4,5,26)" d="M 883.261 191.464 C 900.823 187.48 919.441 184.448 937.264 181.676 C 946.531 180.234 953.365 180.293 961.634 184.75 C 965.342 187.321 967.558 188.717 970.696 191.993 C 980.718 205.534 991.238 260.634 994.375 278.583 C 997.659 304.955 989 311.489 964.119 319.666 C 944.504 326.113 923.405 327.985 903.324 332.65 C 810.275 354.234 715.733 368.585 622.264 387.902 C 612.941 389.828 576.54 393.41 570.388 396.738 C 563.148 397.592 546.033 400.127 539.938 400.071 C 533.836 399.789 531.051 399.303 525.021 400.327 C 516.814 401.721 518.917 405.06 512.351 405.648 C 483.251 406.9 454.527 406.208 425.463 409.047 C 412.346 409.027 403.229 409.139 390.27 406.318 C 388.133 405.554 387.309 405.487 385.942 403.666 C 388.539 398.588 393.288 402.111 399.516 391.87 C 410.487 390.147 425.169 386.67 436.719 384.559 L 445.28 383.041 C 451.509 382.565 457.973 381.246 464.149 380.138 L 461.708 377.919 C 458.296 375.868 451.397 368.505 448.153 365.244 C 444.931 360.389 411.572 325.754 405.423 319.256 C 402.679 317.237 388.141 303.143 385.469 300.509 L 384.397 299.888 L 383.999 298.562 C 383.55 295.634 383.957 296.738 382.174 294.396 C 385.992 292.947 390.198 292.464 394.217 291.798 C 414.869 288.376 435.356 283.95 455.984 280.412 L 471.499 277.156 C 492.83 272.085 514.75 268.538 535.727 263.234 L 540.465 262.519 C 541.542 260.914 541.285 261.827 540.851 259.611 C 542.102 259.04 544.961 258.681 546.471 258.425 C 557.025 256.224 567.624 254.241 578.261 252.478 C 582.117 250.845 610.154 245.884 614.98 245.345 C 618.891 244.44 620.251 244.319 624.18 244.08 L 625.131 245.205 C 628.876 242.98 638.929 241.803 643.601 241.09 C 651.887 247.206 659.713 239.399 671.124 240.936 C 679.308 239.193 709.549 235.867 713.936 233.404 L 714.9 232.867 C 725.126 233.688 724.946 238.826 732.924 239.318 C 737.882 239.625 751.343 232.472 757.031 231.459 C 764.375 230.152 802.604 220.126 807.49 216.18 L 804.778 214.172 C 802.569 211.866 803.133 213.044 802.825 209.625 C 828.697 202.787 858.031 199.717 884.519 193.266 L 883.261 191.464 z"/>
<path transform="translate(0,0)" fill="url(#Gradient11)" d="M 883.261 191.464 C 900.823 187.48 919.441 184.448 937.264 181.676 C 946.531 180.234 953.365 180.293 961.634 184.75 C 965.342 187.321 967.558 188.717 970.696 191.993 C 980.718 205.534 991.238 260.634 994.375 278.583 C 988.605 282.082 988.566 282.152 982.258 283.369 C 958.011 289.675 915.526 295.703 888.824 300.861 C 865.713 306.604 836.563 309.259 812.799 314.384 C 809.318 315.135 792.02 317.854 790.257 318.544 C 775.844 299.636 756.673 278.763 740.933 260.642 C 733.298 251.852 721.459 243.04 713.936 233.404 L 714.9 232.867 C 725.126 233.688 724.946 238.826 732.924 239.318 C 737.882 239.625 751.343 232.472 757.031 231.459 C 764.375 230.152 802.604 220.126 807.49 216.18 L 804.778 214.172 C 802.569 211.866 803.133 213.044 802.825 209.625 C 828.697 202.787 858.031 199.717 884.519 193.266 L 883.261 191.464 z"/>
<path transform="translate(0,0)" fill="url(#Gradient10)" d="M 714.9 232.867 C 725.126 233.688 724.946 238.826 732.924 239.318 C 737.882 239.625 751.343 232.472 757.031 231.459 C 764.375 230.152 802.604 220.126 807.49 216.18 C 813.219 221.033 833.883 240.791 837.216 243.146 C 850.463 257.201 876.214 284.057 886.647 299.885 L 888.824 300.861 C 865.713 306.604 836.563 309.259 812.799 314.384 C 809.318 315.135 792.02 317.854 790.257 318.544 C 775.844 299.636 756.673 278.763 740.933 260.642 C 733.298 251.852 721.459 243.04 713.936 233.404 L 714.9 232.867 z"/>
<path transform="translate(0,0)" fill="url(#Gradient9)" d="M 883.261 191.464 C 900.823 187.48 919.441 184.448 937.264 181.676 C 946.531 180.234 953.365 180.293 961.634 184.75 C 965.342 187.321 967.558 188.717 970.696 191.993 C 980.718 205.534 991.238 260.634 994.375 278.583 C 988.605 282.082 988.566 282.152 982.258 283.369 L 982.496 281.602 C 966.388 274.413 921.103 222.232 903.974 206.252 C 902.475 205.218 895.653 198.886 893.884 197.312 C 892.922 196.268 893.242 194.636 893.156 192.776 C 889.717 192.46 887.869 192.816 884.519 193.266 L 883.261 191.464 z"/>
<path transform="translate(0,0)" fill="rgb(56,53,94)" d="M 970.696 191.993 C 980.718 205.534 991.238 260.634 994.375 278.583 C 988.605 282.082 988.566 282.152 982.258 283.369 L 982.496 281.602 C 989.067 271.881 968.754 218.682 967.442 205.588 C 966.819 199.373 966.718 197.162 970.696 191.993 z"/>
<path transform="translate(0,0)" fill="rgb(98,96,140)" d="M 883.261 191.464 C 900.823 187.48 919.441 184.448 937.264 181.676 C 946.531 180.234 953.365 180.293 961.634 184.75 C 960.725 185.442 959.609 186.292 958.284 187.302 C 942.714 189.05 916.067 195.664 901.718 196.711 C 898.713 196.505 896.487 195.986 893.884 197.312 C 892.922 196.268 893.242 194.636 893.156 192.776 C 889.717 192.46 887.869 192.816 884.519 193.266 L 883.261 191.464 z"/>
<path transform="translate(0,0)" fill="rgb(29,29,64)" d="M 893.884 197.312 C 896.487 195.986 898.713 196.505 901.718 196.711 C 903.511 198.386 905.452 200.287 907.312 201.852 L 907.219 203.8 L 908.753 203.454 C 907.577 204.569 906.985 204.485 905.368 204.798 L 903.974 206.252 C 902.475 205.218 895.653 198.886 893.884 197.312 z"/>
<path transform="translate(0,0)" fill="url(#Gradient8)" d="M 884.519 193.266 C 887.869 192.816 889.717 192.46 893.156 192.776 C 892.488 195.058 892.444 197.017 890.204 197.723 C 873.863 202.868 846.409 205.036 830.587 210.67 C 839.625 208.597 851.772 207.563 859.804 205.049 C 850.956 227.452 845.954 221.055 848.115 251.111 C 845.226 248.166 841.416 243.16 837.216 243.146 C 833.883 240.791 813.219 221.033 807.49 216.18 L 804.778 214.172 C 802.569 211.866 803.133 213.044 802.825 209.625 C 828.697 202.787 858.031 199.717 884.519 193.266 z"/>
<path transform="translate(0,0)" fill="url(#Gradient7)" d="M 671.124 240.936 C 679.308 239.193 709.549 235.867 713.936 233.404 C 721.459 243.04 733.298 251.852 740.933 260.642 C 756.673 278.763 775.844 299.636 790.257 318.544 C 766.23 323.96 737.015 331.184 713.217 334.974 C 687.926 339.879 645.909 347.996 621.36 350.856 C 603.411 329.944 581.753 310.213 563.872 288.884 C 557.539 281.331 548.141 273.822 541.179 266.102 L 540.465 262.519 C 541.542 260.914 541.285 261.827 540.851 259.611 C 542.102 259.04 544.961 258.681 546.471 258.425 C 557.025 256.224 567.624 254.241 578.261 252.478 C 582.117 250.845 610.154 245.884 614.98 245.345 C 618.891 244.44 620.251 244.319 624.18 244.08 L 625.131 245.205 C 628.876 242.98 638.929 241.803 643.601 241.09 C 651.887 247.206 659.713 239.399 671.124 240.936 z"/>
<path transform="translate(0,0)" fill="url(#Gradient6)" d="M 671.124 240.936 C 679.308 239.193 709.549 235.867 713.936 233.404 C 721.459 243.04 733.298 251.852 740.933 260.642 C 756.673 278.763 775.844 299.636 790.257 318.544 C 766.23 323.96 737.015 331.184 713.217 334.974 C 696.964 313.437 661.26 275.611 641.42 257.904 L 641.532 248.309 C 637.584 248.059 635.431 247.45 632.238 250.265 L 625.131 245.205 C 628.876 242.98 638.929 241.803 643.601 241.09 C 651.887 247.206 659.713 239.399 671.124 240.936 z"/>
<path transform="translate(0,0)" fill="rgb(226,216,247)" d="M 643.601 241.09 C 651.887 247.206 659.713 239.399 671.124 240.936 C 661.933 242.967 649.517 244.258 641.532 248.309 C 637.584 248.059 635.431 247.45 632.238 250.265 L 625.131 245.205 C 628.876 242.98 638.929 241.803 643.601 241.09 z"/>
<path transform="translate(0,0)" fill="url(#Gradient5)" d="M 578.261 252.478 C 582.117 250.845 610.154 245.884 614.98 245.345 C 617.914 246.849 619.29 246.739 622.487 246.7 L 624.571 248.326 L 624.711 250.009 C 620.852 254.147 600.004 257.437 593.207 258.761 C 582.768 259.172 559.975 262.478 549.979 265.773 C 547.134 265.566 543.866 265.134 541.179 266.102 L 540.465 262.519 C 541.542 260.914 541.285 261.827 540.851 259.611 C 542.102 259.04 544.961 258.681 546.471 258.425 C 557.025 256.224 567.624 254.241 578.261 252.478 z"/>
<path transform="translate(0,0)" fill="rgb(126,121,179)" d="M 546.471 258.425 C 557.025 256.224 567.624 254.241 578.261 252.478 L 578.876 254.201 C 573.431 256.484 553.388 260.263 547.622 258.727 L 546.471 258.425 z"/>
<path transform="translate(0,0)" fill="rgb(98,96,140)" d="M 549.979 265.773 C 559.975 262.478 582.768 259.172 593.207 258.761 C 590.781 261.44 565.172 264.713 559.287 273.777 C 560.025 276.535 560.41 276.717 562.411 278.9 L 561.001 279.292 C 557.168 276.796 551.003 270.457 549.979 265.773 z"/>
<path transform="translate(0,0)" fill="rgb(225,216,231)" d="M 632.238 250.265 C 635.431 247.45 637.584 248.059 641.532 248.309 L 641.42 257.904 C 639.199 256.433 634.479 252.183 632.238 250.265 z"/>
<path transform="translate(0,0)" fill="url(#Gradient4)" d="M 535.727 263.234 L 540.465 262.519 L 541.179 266.102 C 548.141 273.822 557.539 281.331 563.872 288.884 C 581.753 310.213 603.411 329.944 621.36 350.856 L 540.984 366.63 C 531.416 368.523 470.535 380.596 464.149 380.138 L 461.708 377.919 C 458.296 375.868 451.397 368.505 448.153 365.244 C 444.931 360.389 411.572 325.754 405.423 319.256 C 402.679 317.237 388.141 303.143 385.469 300.509 L 384.397 299.888 L 383.999 298.562 C 383.55 295.634 383.957 296.738 382.174 294.396 C 385.992 292.947 390.198 292.464 394.217 291.798 C 414.869 288.376 435.356 283.95 455.984 280.412 L 471.499 277.156 C 492.83 272.085 514.75 268.538 535.727 263.234 z"/>
<path transform="translate(0,0)" fill="url(#Gradient3)" d="M 535.727 263.234 L 540.465 262.519 L 541.179 266.102 C 548.141 273.822 557.539 281.331 563.872 288.884 C 581.753 310.213 603.411 329.944 621.36 350.856 L 540.984 366.63 L 538.038 362.642 C 532.813 355 526.184 347.195 520.075 340.256 C 515.02 331.673 473.785 290.02 463.207 283.519 C 458.482 282.538 458.525 283.368 455.984 280.412 L 471.499 277.156 C 492.83 272.085 514.75 268.538 535.727 263.234 z"/>
<path transform="translate(0,0)" fill="rgb(225,216,231)" d="M 471.499 277.156 C 492.83 272.085 514.75 268.538 535.727 263.234 L 537.837 265.548 C 529.92 274.342 491.594 277.73 478.748 279.534 C 475.519 279.988 473.858 279.182 471.499 277.156 z"/>
<path transform="translate(0,0)" fill="rgb(29,29,64)" d="M 405.423 319.256 C 408.815 318.019 410.704 318.422 413.974 319.971 C 427.554 337.788 444.575 353.24 459.045 370.249 C 460.838 372.355 462.262 375.112 461.708 377.919 C 458.296 375.868 451.397 368.505 448.153 365.244 C 444.931 360.389 411.572 325.754 405.423 319.256 z"/>
<path transform="translate(0,0)" fill="rgb(192,177,240)" d="M 382.174 294.396 C 385.992 292.947 390.198 292.464 394.217 291.798 C 414.869 288.376 435.356 283.95 455.984 280.412 C 458.525 283.368 458.482 282.538 463.207 283.519 C 454.21 285.049 386.725 297.362 384.397 299.888 L 383.999 298.562 C 383.55 295.634 383.957 296.738 382.174 294.396 z"/>
<path transform="translate(0,0)" fill="rgb(56,53,94)" d="M 385.469 300.509 L 387.977 299.496 C 394.745 303.338 409.636 313.676 413.974 319.971 C 410.704 318.422 408.815 318.019 405.423 319.256 C 402.679 317.237 388.141 303.143 385.469 300.509 z"/>
<path transform="translate(0,0)" fill="rgb(29,29,64)" d="M 538.038 362.642 C 530.319 363.19 522.002 351.499 518.979 345.115 C 517.975 342.994 519.025 342.039 520.075 340.256 C 526.184 347.195 532.813 355 538.038 362.642 z"/>
<path transform="translate(0,0)" fill="url(#Gradient2)" d="M 255.805 956.587 C 259.251 958.455 260.654 959.33 263.813 961.692 C 260.965 963.474 258.665 962.813 255.522 962.447 C 253.01 964.937 252.104 965.592 250.988 969.075 C 252.856 984.518 295.944 984.181 308.064 982.548 C 310.197 982.249 312.316 981.855 314.413 981.366 C 319.816 983.659 321.996 989.9 324.507 995.168 C 315.537 994.718 300.511 995.696 291.03 995.882 C 274.715 996.259 258.398 995.211 242.265 992.749 C 238.225 992.157 225.525 990.081 223.508 987.367 C 226.534 986.212 228.51 985.471 231.417 983.911 L 231.188 982.862 C 225.639 982.037 210.92 972.628 208.348 969.258 C 207.901 964.996 210.82 963.773 212.443 958.553 C 204.985 954.697 191.211 962.978 182.984 964.833 C 175.426 966.468 167.731 967.382 160 967.563 C 157.435 970.908 160.424 971.378 158.465 975.243 C 157.652 972.22 156.854 970.112 157.009 966.98 C 160.1 964.934 169.816 966.549 174.209 965.063 C 201.228 955.919 224.743 953.071 253.616 958.282 L 255.805 956.587 z"/>
<path transform="translate(0,0)" fill="rgb(80,76,118)" d="M 624.18 244.08 C 628.424 241.74 657.943 236.199 664.411 234.983 C 737.309 221.272 810.191 203.91 883.261 191.464 L 884.519 193.266 C 858.031 199.717 828.697 202.787 802.825 209.625 C 803.133 213.044 802.569 211.866 804.778 214.172 L 807.49 216.18 C 802.604 220.126 764.375 230.152 757.031 231.459 C 751.343 232.472 737.882 239.625 732.924 239.318 C 724.946 238.826 725.126 233.688 714.9 232.867 L 713.936 233.404 C 709.549 235.867 679.308 239.193 671.124 240.936 C 659.713 239.399 651.887 247.206 643.601 241.09 C 638.929 241.803 628.876 242.98 625.131 245.205 L 624.18 244.08 z"/>
<path transform="translate(0,0)" fill="rgb(80,76,118)" d="M 776.864 215.249 C 785.617 213.468 793.98 211.261 802.825 209.625 C 803.133 213.044 802.569 211.866 804.778 214.172 L 807.49 216.18 C 802.604 220.126 764.375 230.152 757.031 231.459 C 751.343 232.472 737.882 239.625 732.924 239.318 C 724.946 238.826 725.126 233.688 714.9 232.867 C 725.02 231.914 734.032 229.442 743.815 226.899 C 748.951 223.465 752.84 225.376 757.498 222.173 L 754.075 219.279 C 762.427 218.217 768.77 217.563 776.864 215.249 z"/>
<path transform="translate(0,0)" fill="rgb(166,159,232)" d="M 776.864 215.249 C 785.617 213.468 793.98 211.261 802.825 209.625 C 803.133 213.044 802.569 211.866 804.778 214.172 C 795.49 216.705 785.618 218.826 776.588 221.4 L 776.864 215.249 z"/>
<path transform="translate(0,0)" fill="rgb(192,177,240)" d="M 754.075 219.279 C 762.427 218.217 768.77 217.563 776.864 215.249 L 776.588 221.4 C 766.234 223.293 754.138 225.801 743.815 226.899 C 748.951 223.465 752.84 225.376 757.498 222.173 L 754.075 219.279 z"/>
<path transform="translate(0,0)" fill="url(#Gradient1)" d="M 643.601 241.09 C 679.857 233.149 716.846 227.48 754.075 219.279 L 757.498 222.173 C 752.84 225.376 748.951 223.465 743.815 226.899 C 734.032 229.442 725.02 231.914 714.9 232.867 L 713.936 233.404 C 709.549 235.867 679.308 239.193 671.124 240.936 C 659.713 239.399 651.887 247.206 643.601 241.09 z"/>
<path transform="translate(0,0)" fill="rgb(80,76,118)" d="M 305.346 306.84 C 324.461 303.622 343.413 298.928 362.495 295.305 C 403.598 287.827 444.63 279.961 485.585 271.708 C 503.821 267.944 522.698 262.926 540.851 259.611 C 541.285 261.827 541.542 260.914 540.465 262.519 L 535.727 263.234 C 514.75 268.538 492.83 272.085 471.499 277.156 L 455.984 280.412 C 435.356 283.95 414.869 288.376 394.217 291.798 C 390.198 292.464 385.992 292.947 382.174 294.396 C 368.169 296.876 335.478 302.16 323.147 305.868 C 319.178 305.827 315.182 306.827 312.138 309.458 L 311.672 310.704 L 309.93 311.424 L 305.346 306.84 z"/>
</svg>